<svg width="664.8313232421875px" height="122.021240234375px" xmlns="http://www.w3.org/2000/svg" viewBox="-82.41566162109376 13.9893798828125 664.8313232421875 122.021240234375" style="background: rgba(0, 0, 0, 0);" preserveAspectRatio="xMidYMid"><defs><filter id="editing-extrusion" x="-100%" y="-100%" width="300%" height="300%"><feFlood result="color1" flood-color="#ff2727"></feFlood><feConvolveMatrix order="8,8" divisor="1" kernelMatrix="1 0 0 0 0 0 0 0 0 1 0 0 0 0 0 0 0 0 1 0 0 0 0 0 0 0 0 1 0 0 0 0 0 0 0 0 1 0 0 0 0 0 0 0 0 1 0 0 0 0 0 0 0 0 1 0 0 0 0 0 0 0 0 1" in="SourceAlpha" result="extrude"></feConvolveMatrix><feComposite in="color1" in2="extrude" result="comp-extrude" operator="in"></feComposite><feOffset dx="4" dy="4" in="comp-extrude" result="offset-extrude"></feOffset><feMerge><feMergeNode in="offset-extrude"></feMergeNode><feMergeNode in="SourceGraphic"></feMergeNode></feMerge></filter></defs><g filter="url(#editing-extrusion)"><g transform="translate(15.35719120502472, 98.9921875)"><path d="M6.53 0L-0.83 0L10.75-42.24L24.13-42.24L27.07-18.11L38.98-42.24L50.18-42.24L51.33-10.62L51.33-10.62Q51.58-4.35 54.66-2.43L54.66-2.43L54.66-2.43Q53.95-1.15 51.90 0.06L51.90 0.06L51.90 0.06Q49.86 1.28 47.14 1.28L47.14 1.28L47.14 1.28Q44.42 1.28 42.82 0.51L42.82 0.51L42.82 0.51Q41.22-0.26 40.32-1.54L40.32-1.54L40.32-1.54Q38.72-3.84 38.72-8.26L38.72-8.26L38.72-28.03L26.11 0L18.18 0L13.70-28.74L6.53 0ZM60.19-1.92L60.19-1.92L60.19-1.92Q58.69-3.58 58.02-6.21L58.02-6.21L58.02-6.21Q57.34-8.83 57.34-13.12L57.34-13.12L57.34-13.12Q57.34-17.41 58.82-21.31L58.82-21.31L58.82-21.31Q60.29-25.22 62.98-28.03L62.98-28.03L62.98-28.03Q68.48-33.92 77.57-33.92L77.57-33.92L77.57-33.92Q80.83-33.92 83.20-32.83L83.20-32.83L94.14-33.92L89.41-8.96L89.41-8.96Q89.22-8.19 89.22-6.78L89.22-6.78L89.22-6.78Q89.22-5.38 90.08-4.48L90.08-4.48L90.08-4.48Q90.94-3.58 92.22-3.46L92.22-3.46L92.22-3.46Q91.58-1.28 89.25 0L89.25 0L89.25 0Q86.91 1.28 84.29 1.28L84.29 1.28L84.29 1.28Q81.66 1.28 79.90 0.29L79.90 0.29L79.90 0.29Q78.14-0.70 77.63-2.37L77.63-2.37L77.63-2.37Q76.61-0.77 74.43 0.26L74.43 0.26L74.43 0.26Q72.26 1.28 69.34 1.28L69.34 1.28L69.34 1.28Q66.43 1.28 64.06 0.51L64.06 0.51L64.06 0.51Q61.70-0.26 60.19-1.92ZM73.70-27.90L73.70-27.90L73.70-27.90Q72.96-26.75 72.32-24.80L72.32-24.80L72.32-24.80Q71.68-22.85 70.62-17.63L70.62-17.63L70.62-17.63Q69.57-12.42 69.57-8.70L69.57-8.70L69.57-8.70Q69.57-4.99 70.14-3.90L70.14-3.90L70.14-3.90Q70.72-2.82 71.74-2.82L71.74-2.82L71.74-2.82Q73.79-2.82 75.30-4.77L75.30-4.77L75.30-4.77Q76.80-6.72 77.38-10.18L77.38-10.18L80.77-28.93L80.77-28.93Q79.42-30.08 77.86-30.08L77.86-30.08L77.86-30.08Q76.29-30.08 75.36-29.57L75.36-29.57L75.36-29.57Q74.43-29.06 73.70-27.90ZM128.77-26.62L128.77-26.62L128.77-26.62Q128.77-23.94 126.53-22.27L126.53-22.27L126.53-22.27Q124.29-20.61 120.64-20.61L120.64-20.61L120.64-20.61Q119.10-20.61 118.21-21.06L118.21-21.06L118.21-21.06Q118.91-22.72 119.14-24.80L119.14-24.80L119.14-24.80Q119.36-26.88 119.36-27.46L119.36-27.46L119.36-27.46Q119.36-30.14 117.50-30.14L117.50-30.14L117.50-30.14Q116.22-30.14 114.78-28.54L114.78-28.54L114.78-28.54Q113.34-26.94 112.13-24.45L112.13-24.45L112.13-24.45Q109.44-18.69 109.44-12.86L109.44-12.86L109.44-12.86Q109.44-9.66 110.66-8.22L110.66-8.22L110.66-8.22Q111.87-6.78 114.56-6.78L114.56-6.78L114.56-6.78Q118.27-6.78 121.22-9.86L121.22-9.86L121.22-9.86Q122.05-10.82 122.50-11.90L122.50-11.90L122.50-11.90Q124.93-10.62 124.93-7.10L124.93-7.10L124.93-7.10Q124.93-3.52 120.96-1.15L120.96-1.15L120.96-1.15Q116.86 1.28 110.34 1.28L110.34 1.28L110.34 1.28Q97.34 1.28 97.34-12.48L97.34-12.48L97.34-12.48Q97.34-22.53 103.04-28.29L103.04-28.29L103.04-28.29Q108.54-33.92 118.66-33.92L118.66-33.92L118.66-33.92Q128.77-33.92 128.77-26.62ZM150.53-17.98L150.53-17.98L150.53-17.98Q152.83-22.08 152.83-26.24L152.83-26.24L152.83-26.24Q152.83-28.99 150.85-28.99L150.85-28.99L150.85-28.99Q149.31-28.99 147.71-26.37L147.71-26.37L147.71-26.37Q146.05-23.74 145.54-20.35L145.54-20.35L142.21 0L128.96 1.28L135.49-32.64L146.05-33.92L144.90-27.46L144.90-27.46Q148.03-33.92 155.07-33.92L155.07-33.92L155.07-33.92Q158.78-33.92 160.80-32L160.80-32L160.80-32Q162.82-30.08 162.82-26.14L162.82-26.14L162.82-26.14Q162.82-22.21 160.22-19.71L160.22-19.71L160.22-19.71Q157.63-17.22 153.22-17.22L153.22-17.22L153.22-17.22Q151.30-17.22 150.53-17.98ZM177.79 1.28L177.79 1.28L177.79 1.28Q163.71 1.28 163.71-11.97L163.71-11.97L163.71-11.97Q163.71-21.38 168.90-27.46L168.90-27.46L168.90-27.46Q174.40-33.92 183.94-33.92L183.94-33.92L183.94-33.92Q190.85-33.92 194.37-30.72L194.37-30.72L194.37-30.72Q197.89-27.52 197.89-20.80L197.89-20.80L197.89-20.80Q197.89-10.56 192.38-4.61L192.38-4.61L192.38-4.61Q187.01 1.28 177.79 1.28ZM179.46-26.56L179.46-26.56L179.46-26.56Q178.69-24.83 178.08-22.24L178.08-22.24L178.08-22.24Q177.47-19.65 176.70-15.55L176.70-15.55L176.70-15.55Q175.94-11.46 175.94-6.40L175.94-6.40L175.94-6.40Q175.94-4.74 176.48-3.65L176.48-3.65L176.48-3.65Q177.02-2.56 178.50-2.56L178.50-2.56L178.50-2.56Q179.97-2.56 180.90-3.26L180.90-3.26L180.90-3.26Q181.82-3.97 182.53-5.63L182.53-5.63L182.53-5.63Q183.81-8.58 184.83-14.05L184.83-14.05L184.83-14.05Q185.86-19.52 185.95-21.89L185.95-21.89L185.95-21.89Q186.05-24.26 186.05-26.02L186.05-26.02L186.05-26.02Q186.05-27.78 185.54-28.93L185.54-28.93L185.54-28.93Q185.02-30.08 183.58-30.08L183.58-30.08L183.58-30.08Q182.14-30.08 181.18-29.18L181.18-29.18L181.18-29.18Q180.22-28.29 179.46-26.56ZM228.74 1.28L228.74 1.28L228.74 1.28Q220.99 1.28 220.99-4.74L220.99-4.74L220.99-4.74Q221.06-6.40 221.57-9.22L221.57-9.22L222.72-15.10L222.72-15.10Q224.45-23.42 224.45-25.28L224.45-25.28L224.45-25.28Q224.45-28.99 222.27-28.99L222.27-28.99L222.27-28.99Q218.62-28.99 216.70-19.46L216.70-19.46L212.93 0L200.06 1.28L206.72-32.70L217.22-33.92L216.19-27.65L216.19-27.65Q219.20-33.92 228.42-33.92L228.42-33.92L228.42-33.92Q232.90-33.92 234.78-32.03L234.78-32.03L234.78-32.03Q236.67-30.14 236.67-25.92L236.67-25.92L236.67-25.92Q236.67-21.95 234.62-12.67L234.62-12.67L234.62-12.67Q233.66-8.51 233.66-6.94L233.66-6.94L233.66-6.94Q233.66-5.38 234.53-4.48L234.53-4.48L234.53-4.48Q235.39-3.58 236.67-3.46L236.67-3.46L236.67-3.46Q236.03-1.28 233.82 0L233.82 0L233.82 0Q231.62 1.28 228.74 1.28ZM251.07-29.50L244.29-29.50L244.29-29.50Q246.66-37.70 246.78-46.34L246.78-46.34L248.64-46.59L248.64-46.59Q249.60-46.72 250.30-46.72L250.30-46.72L250.30-46.72Q253.12-46.72 254.66-45.34L254.66-45.34L254.66-45.34Q256.19-43.97 256.19-41.54L256.19-41.54L256.19-41.54Q256.19-38.98 255.04-36.16L255.04-36.16L255.04-36.16Q252.99-31.17 251.07-29.50L251.07-29.50ZM274.56-22.46L274.56-22.46L274.56-22.46Q275.46-24.83 275.46-26.88L275.46-26.88L275.46-26.88Q275.46-30.66 272.38-30.66L272.38-30.66L272.38-30.66Q270.78-30.66 269.47-29.22L269.47-29.22L269.47-29.22Q268.16-27.78 268.16-25.98L268.16-25.98L268.16-25.98Q268.16-24.70 269.18-23.68L269.18-23.68L269.18-23.68Q270.66-22.27 274.43-19.97L274.43-19.97L274.43-19.97Q278.21-17.66 279.65-15.78L279.65-15.78L279.65-15.78Q281.09-13.89 281.09-11.30L281.09-11.30L281.09-11.30Q281.09-8.70 279.84-6.34L279.84-6.34L279.84-6.34Q278.59-3.97 276.35-2.30L276.35-2.30L276.35-2.30Q271.55 1.28 263.87 1.28L263.87 1.28L263.87 1.28Q259.71 1.28 256.51-0.90L256.51-0.90L256.51-0.90Q253.31-3.01 253.31-5.50L253.31-5.50L253.31-5.50Q253.31-8 255.14-9.47L255.14-9.47L255.14-9.47Q256.96-10.94 259.65-10.94L259.65-10.94L259.65-10.94Q262.34-10.94 264-9.92L264-9.92L264-9.92Q263.17-7.81 263.17-6.40L263.17-6.40L263.17-6.40Q263.17-2.18 266.75-2.18L266.75-2.18L266.75-2.18Q268.29-2.18 269.31-3.14L269.31-3.14L269.31-3.14Q270.34-4.10 270.34-5.76L270.34-5.76L270.34-5.76Q270.34-9.02 264.83-12.48L264.83-12.48L264.83-12.48Q260.35-15.42 259.33-16.58L259.33-16.58L259.33-16.58Q257.60-18.62 257.60-21.18L257.60-21.18L257.60-21.18Q257.60-23.74 258.82-26.18L258.82-26.18L258.82-26.18Q260.03-28.61 262.27-30.34L262.27-30.34L262.27-30.34Q266.94-33.92 275.07-33.92L275.07-33.92L275.07-33.92Q279.23-33.92 281.70-32.26L281.70-32.26L281.70-32.26Q284.16-30.59 284.16-27.78L284.16-27.78L284.16-27.78Q284.16-24.96 282.46-23.36L282.46-23.36L282.46-23.36Q280.77-21.76 277.70-21.76L277.70-21.76L277.70-21.76Q275.58-21.76 274.56-22.46ZM298.88-3.07L298.88-3.07L306.82-44.80L319.81-46.08L317.82-36.29L317.82-36.29Q317.12-33.28 316.22-31.17L316.22-31.17L316.22-31.17Q317.63-32.96 320.70-33.66L320.70-33.66L320.70-33.66Q321.60-33.92 322.69-33.92L322.69-33.92L322.69-33.92Q328.64-33.92 331.90-30.30L331.90-30.30L331.90-30.30Q335.17-26.69 335.17-19.71L335.17-19.71L335.17-19.71Q335.17-10.62 329.98-4.93L329.98-4.93L329.98-4.93Q324.42 1.28 314.30 1.28L314.30 1.28L314.30 1.28Q307.33 1.28 302.08-1.02L302.08-1.02L302.08-1.02Q300.22-1.86 298.88-3.07ZM315.14-22.40L311.74-3.65L311.74-3.65Q313.09-2.50 314.75-2.50L314.75-2.50L314.75-2.50Q316.42-2.50 317.38-3.14L317.38-3.14L317.38-3.14Q318.34-3.78 319.04-5.06L319.04-5.06L319.04-5.06Q320.96-8.51 322.50-19.07L322.50-19.07L322.50-19.07Q322.94-22.08 322.94-25.09L322.94-25.09L322.94-25.09Q322.94-28.10 322.27-29.06L322.27-29.06L322.27-29.06Q321.60-30.02 320.32-30.02L320.32-30.02L320.32-30.02Q316.42-30.02 315.14-22.40L315.14-22.40ZM359.04-17.98L359.04-17.98L359.04-17.98Q361.34-22.08 361.34-26.24L361.34-26.24L361.34-26.24Q361.34-28.99 359.36-28.99L359.36-28.99L359.36-28.99Q357.82-28.99 356.22-26.37L356.22-26.37L356.22-26.37Q354.56-23.74 354.05-20.35L354.05-20.35L350.72 0L337.47 1.28L344-32.64L354.56-33.92L353.41-27.46L353.41-27.46Q356.54-33.92 363.58-33.92L363.58-33.92L363.58-33.92Q367.30-33.92 369.31-32L369.31-32L369.31-32Q371.33-30.08 371.33-26.14L371.33-26.14L371.33-26.14Q371.33-22.21 368.74-19.71L368.74-19.71L368.74-19.71Q366.14-17.22 361.73-17.22L361.73-17.22L361.73-17.22Q359.81-17.22 359.04-17.98ZM375.14-1.92L375.14-1.92L375.14-1.92Q373.63-3.58 372.96-6.21L372.96-6.21L372.96-6.21Q372.29-8.83 372.29-13.12L372.29-13.12L372.29-13.12Q372.29-17.41 373.76-21.31L373.76-21.31L373.76-21.31Q375.23-25.22 377.92-28.03L377.92-28.03L377.92-28.03Q383.42-33.92 392.51-33.92L392.51-33.92L392.51-33.92Q395.78-33.92 398.14-32.83L398.14-32.83L409.09-33.92L404.35-8.96L404.35-8.96Q404.16-8.19 404.16-6.78L404.16-6.78L404.16-6.78Q404.16-5.38 405.02-4.48L405.02-4.48L405.02-4.48Q405.89-3.58 407.17-3.46L407.17-3.46L407.17-3.46Q406.53-1.28 404.19 0L404.19 0L404.19 0Q401.86 1.28 399.23 1.28L399.23 1.28L399.23 1.28Q396.61 1.28 394.85 0.29L394.85 0.29L394.85 0.29Q393.09-0.70 392.58-2.37L392.58-2.37L392.58-2.37Q391.55-0.77 389.38 0.26L389.38 0.26L389.38 0.26Q387.20 1.28 384.29 1.28L384.29 1.28L384.29 1.28Q381.38 1.28 379.01 0.51L379.01 0.51L379.01 0.51Q376.64-0.26 375.14-1.92ZM388.64-27.90L388.64-27.90L388.64-27.90Q387.90-26.75 387.26-24.80L387.26-24.80L387.26-24.80Q386.62-22.85 385.57-17.63L385.57-17.63L385.57-17.63Q384.51-12.42 384.51-8.70L384.51-8.70L384.51-8.70Q384.51-4.99 385.09-3.90L385.09-3.90L385.09-3.90Q385.66-2.82 386.69-2.82L386.69-2.82L386.69-2.82Q388.74-2.82 390.24-4.77L390.24-4.77L390.24-4.77Q391.74-6.72 392.32-10.18L392.32-10.18L395.71-28.93L395.71-28.93Q394.37-30.08 392.80-30.08L392.80-30.08L392.80-30.08Q391.23-30.08 390.30-29.57L390.30-29.57L390.30-29.57Q389.38-29.06 388.64-27.90ZM427.90-3.52L427.90-3.52L427.90-3.52Q425.92 1.28 419.58 1.28L419.58 1.28L419.58 1.28Q416.32 1.28 414.27-0.96L414.27-0.96L414.27-0.96Q412.54-2.94 412.54-4.93L412.54-4.93L412.54-4.93Q412.54-10.11 414.91-20.22L414.91-20.22L417.28-32.64L430.27-33.92L426.37-13.70L426.37-13.70Q425.28-8.96 425.28-7.30L425.28-7.30L425.28-7.30Q425.28-3.65 427.90-3.52ZM418.43-41.54L418.43-41.54L418.43-41.54Q418.43-44.03 420.51-45.38L420.51-45.38L420.51-45.38Q422.59-46.72 425.60-46.72L425.60-46.72L425.60-46.72Q428.61-46.72 430.43-45.38L430.43-45.38L430.43-45.38Q432.26-44.03 432.26-41.54L432.26-41.54L432.26-41.54Q432.26-39.04 430.24-37.76L430.24-37.76L430.24-37.76Q428.22-36.48 425.22-36.48L425.22-36.48L425.22-36.48Q422.21-36.48 420.32-37.76L420.32-37.76L420.32-37.76Q418.43-39.04 418.43-41.54ZM460.42 1.28L460.42 1.28L460.42 1.28Q452.67 1.28 452.67-4.74L452.67-4.74L452.67-4.74Q452.74-6.40 453.25-9.22L453.25-9.22L454.40-15.10L454.40-15.10Q456.13-23.42 456.13-25.28L456.13-25.28L456.13-25.28Q456.13-28.99 453.95-28.99L453.95-28.99L453.95-28.99Q450.30-28.99 448.38-19.46L448.38-19.46L444.61 0L431.74 1.28L438.40-32.70L448.90-33.92L447.87-27.65L447.87-27.65Q450.88-33.92 460.10-33.92L460.10-33.92L460.10-33.92Q464.58-33.92 466.46-32.03L466.46-32.03L466.46-32.03Q468.35-30.14 468.35-25.92L468.35-25.92L468.35-25.92Q468.35-21.95 466.30-12.67L466.30-12.67L466.30-12.67Q465.34-8.51 465.34-6.94L465.34-6.94L465.34-6.94Q465.34-5.38 466.21-4.48L466.21-4.48L466.21-4.48Q467.07-3.58 468.35-3.46L468.35-3.46L468.35-3.46Q467.71-1.28 465.50 0L465.50 0L465.50 0Q463.30 1.28 460.42 1.28Z" fill="#ffffff"></path></g></g><style>text {
  font-size: 64px;
  font-family: Arial Black;
  dominant-baseline: central;
  text-anchor: middle;
}</style></svg>