<svg width="622.565087890625px" height="122.021240234375px" xmlns="http://www.w3.org/2000/svg" viewBox="-61.28254394531251 13.9893798828125 622.565087890625 122.021240234375" style="background: rgba(0, 0, 0, 0);" preserveAspectRatio="xMidYMid"><defs><filter id="editing-jagged" x="-100%" y="-100%" width="300%" height="300%"><feTurbulence result="turb" baseFrequency="0.1" numOctaves="1" seed="1"></feTurbulence><feDisplacementMap in="SourceGraphic" in2="turb" scale="10"></feDisplacementMap></filter></defs><g filter="url(#editing-jagged)"><g transform="translate(29.576887249946594, 98.70218849182129)"><path d="M6.53 0L-0.83 0L10.75-42.24L24.13-42.24L27.07-18.11L38.98-42.24L50.18-42.24L51.33-10.62L51.33-10.62Q51.58-4.35 54.66-2.43L54.66-2.43L54.66-2.43Q53.95-1.15 51.90 0.06L51.90 0.06L51.90 0.06Q49.86 1.28 47.14 1.28L47.14 1.28L47.14 1.28Q44.42 1.28 42.82 0.51L42.82 0.51L42.82 0.51Q41.22-0.26 40.32-1.54L40.32-1.54L40.32-1.54Q38.72-3.84 38.72-8.26L38.72-8.26L38.72-28.03L26.11 0L18.18 0L13.70-28.74L6.53 0ZM60.19-1.92L60.19-1.92L60.19-1.92Q58.69-3.58 58.02-6.21L58.02-6.21L58.02-6.21Q57.34-8.83 57.34-13.12L57.34-13.12L57.34-13.12Q57.34-17.41 58.82-21.31L58.82-21.31L58.82-21.31Q60.29-25.22 62.98-28.03L62.98-28.03L62.98-28.03Q68.48-33.92 77.57-33.92L77.57-33.92L77.57-33.92Q80.83-33.92 83.20-32.83L83.20-32.83L94.14-33.92L89.41-8.96L89.41-8.96Q89.22-8.19 89.22-6.78L89.22-6.78L89.22-6.78Q89.22-5.38 90.08-4.48L90.08-4.48L90.08-4.48Q90.94-3.58 92.22-3.46L92.22-3.46L92.22-3.46Q91.58-1.28 89.25 0L89.25 0L89.25 0Q86.91 1.28 84.29 1.28L84.29 1.28L84.29 1.28Q81.66 1.28 79.90 0.29L79.90 0.29L79.90 0.29Q78.14-0.70 77.63-2.37L77.63-2.37L77.63-2.37Q76.61-0.77 74.43 0.26L74.43 0.26L74.43 0.26Q72.26 1.28 69.34 1.28L69.34 1.28L69.34 1.28Q66.43 1.28 64.06 0.51L64.06 0.51L64.06 0.51Q61.70-0.26 60.19-1.92ZM73.70-27.90L73.70-27.90L73.70-27.90Q72.96-26.75 72.32-24.80L72.32-24.80L72.32-24.80Q71.68-22.85 70.62-17.63L70.62-17.63L70.62-17.63Q69.57-12.42 69.57-8.70L69.57-8.70L69.57-8.70Q69.57-4.99 70.14-3.90L70.14-3.90L70.14-3.90Q70.72-2.82 71.74-2.82L71.74-2.82L71.74-2.82Q73.79-2.82 75.30-4.77L75.30-4.77L75.30-4.77Q76.80-6.72 77.38-10.18L77.38-10.18L80.77-28.93L80.77-28.93Q79.42-30.08 77.86-30.08L77.86-30.08L77.86-30.08Q76.29-30.08 75.36-29.57L75.36-29.57L75.36-29.57Q74.43-29.06 73.70-27.90ZM114.11-30.34L114.11-30.34L114.11-30.34Q117.57-33.92 124.86-33.92L124.86-33.92L124.86-33.92Q128.90-33.92 131.10-31.78L131.10-31.78L131.10-31.78Q133.31-29.63 133.31-25.70L133.31-25.70L133.31-25.70Q133.31-21.76 131.10-18.98L131.10-18.98L131.10-18.98Q128.90-16.19 124.80-15.04L124.80-15.04L124.80-15.04Q125.12-13.76 125.57-12.42L125.57-12.42L126.46-9.86L126.46-9.86Q127.68-6.59 128.64-5.44L128.64-5.44L128.64-5.44Q129.60-4.29 130.88-3.90L130.88-3.90L130.88-3.90Q130.18-1.28 127.62 0.13L127.62 0.13L127.62 0.13Q125.57 1.28 122.75 1.28L122.75 1.28L122.75 1.28Q114.50 1.28 113.41-11.46L113.41-11.46L113.41-11.46Q113.22-13.25 113.22-15.04L113.22-15.04L113.22-15.04Q116.42-15.94 118.66-18.94L118.66-18.94L118.66-18.94Q120.90-21.95 120.90-25.47L120.90-25.47L120.90-25.47Q120.90-28.99 118.40-28.99L118.40-28.99L118.40-28.99Q116.61-28.99 115.20-27.01L115.20-27.01L115.20-27.01Q113.79-25.02 113.15-21.63L113.15-21.63L108.93 0L96 1.28L104.96-44.80L117.82-46.08L116.35-38.46L116.35-38.46Q115.39-33.09 114.11-30.34ZM156.29-17.98L156.29-17.98L156.29-17.98Q158.59-22.08 158.59-26.24L158.59-26.24L158.59-26.24Q158.59-28.99 156.61-28.99L156.61-28.99L156.61-28.99Q155.07-28.99 153.47-26.37L153.47-26.37L153.47-26.37Q151.81-23.74 151.30-20.35L151.30-20.35L147.97 0L134.72 1.28L141.25-32.64L151.81-33.92L150.66-27.46L150.66-27.46Q153.79-33.92 160.83-33.92L160.83-33.92L160.83-33.92Q164.54-33.92 166.56-32L166.56-32L166.56-32Q168.58-30.08 168.58-26.14L168.58-26.14L168.58-26.14Q168.58-22.21 165.98-19.71L165.98-19.71L165.98-19.71Q163.39-17.22 158.98-17.22L158.98-17.22L158.98-17.22Q157.06-17.22 156.29-17.98ZM183.55 1.28L183.55 1.28L183.55 1.28Q169.47 1.28 169.47-11.97L169.47-11.97L169.47-11.97Q169.47-21.38 174.66-27.46L174.66-27.46L174.66-27.46Q180.16-33.92 189.70-33.92L189.70-33.92L189.70-33.92Q196.61-33.92 200.13-30.72L200.13-30.72L200.13-30.72Q203.65-27.52 203.65-20.80L203.65-20.80L203.65-20.80Q203.65-10.56 198.14-4.61L198.14-4.61L198.14-4.61Q192.77 1.28 183.55 1.28ZM185.22-26.56L185.22-26.56L185.22-26.56Q184.45-24.83 183.84-22.24L183.84-22.24L183.84-22.24Q183.23-19.65 182.46-15.55L182.46-15.55L182.46-15.55Q181.70-11.46 181.70-6.40L181.70-6.40L181.70-6.40Q181.70-4.74 182.24-3.65L182.24-3.65L182.24-3.65Q182.78-2.56 184.26-2.56L184.26-2.56L184.26-2.56Q185.73-2.56 186.66-3.26L186.66-3.26L186.66-3.26Q187.58-3.97 188.29-5.63L188.29-5.63L188.29-5.63Q189.57-8.58 190.59-14.05L190.59-14.05L190.59-14.05Q191.62-19.52 191.71-21.89L191.71-21.89L191.71-21.89Q191.81-24.26 191.81-26.02L191.81-26.02L191.81-26.02Q191.81-27.78 191.30-28.93L191.30-28.93L191.30-28.93Q190.78-30.08 189.34-30.08L189.34-30.08L189.34-30.08Q187.90-30.08 186.94-29.18L186.94-29.18L186.94-29.18Q185.98-28.29 185.22-26.56ZM234.50 1.28L234.50 1.28L234.50 1.28Q226.75 1.28 226.75-4.74L226.75-4.74L226.75-4.74Q226.82-6.40 227.33-9.22L227.33-9.22L228.48-15.10L228.48-15.10Q230.21-23.42 230.21-25.28L230.21-25.28L230.21-25.28Q230.21-28.99 228.03-28.99L228.03-28.99L228.03-28.99Q224.38-28.99 222.46-19.46L222.46-19.46L218.69 0L205.82 1.28L212.48-32.70L222.98-33.92L221.95-27.65L221.95-27.65Q224.96-33.92 234.18-33.92L234.18-33.92L234.18-33.92Q238.66-33.92 240.54-32.03L240.54-32.03L240.54-32.03Q242.43-30.14 242.43-25.92L242.43-25.92L242.43-25.92Q242.43-21.95 240.38-12.67L240.38-12.67L240.38-12.67Q239.42-8.51 239.42-6.94L239.42-6.94L239.42-6.94Q239.42-5.38 240.29-4.48L240.29-4.48L240.29-4.48Q241.15-3.58 242.43-3.46L242.43-3.46L242.43-3.46Q241.79-1.28 239.58 0L239.58 0L239.58 0Q237.38 1.28 234.50 1.28ZM287.81 1.28L287.81 1.28L287.81 1.28Q280.06 1.28 280.06-4.74L280.06-4.74L280.06-4.74Q280.13-6.40 280.64-9.22L280.64-9.22L281.79-15.10L281.79-15.10Q283.52-23.42 283.52-25.28L283.52-25.28L283.52-25.28Q283.52-28.99 281.34-28.99L281.34-28.99L281.34-28.99Q277.70-28.99 275.78-19.46L275.78-19.46L272 0L259.14 1.28L265.79-32.70L276.29-33.92L275.26-27.65L275.26-27.65Q278.27-33.92 287.49-33.92L287.49-33.92L287.49-33.92Q291.97-33.92 293.86-32.03L293.86-32.03L293.86-32.03Q295.74-30.14 295.74-25.92L295.74-25.92L295.74-25.92Q295.74-21.95 293.70-12.67L293.70-12.67L293.70-12.67Q292.74-8.51 292.74-6.94L292.74-6.94L292.74-6.94Q292.74-5.38 293.60-4.48L293.60-4.48L293.60-4.48Q294.46-3.58 295.74-3.46L295.74-3.46L295.74-3.46Q295.10-1.28 292.90 0L292.90 0L292.90 0Q290.69 1.28 287.81 1.28ZM326.78-10.82L326.78-10.82L326.78-10.82Q328.38-9.73 328.38-7.33L328.38-7.33L328.38-7.33Q328.38-4.93 327.17-3.39L327.17-3.39L327.17-3.39Q325.95-1.86 323.97-0.83L323.97-0.83L323.97-0.83Q319.87 1.28 315.46 1.28L315.46 1.28L315.46 1.28Q311.04 1.28 308.45 0.32L308.45 0.32L308.45 0.32Q305.86-0.64 304.13-2.43L304.13-2.43L304.13-2.43Q300.74-5.82 300.74-12.03L300.74-12.03L300.74-12.03Q300.74-21.70 305.98-27.58L305.98-27.58L305.98-27.58Q311.62-33.92 321.41-33.92L321.41-33.92L321.41-33.92Q327.49-33.92 330.50-31.36L330.50-31.36L330.50-31.36Q332.74-29.44 332.74-26.30L332.74-26.30L332.74-26.30Q332.74-15.04 313.28-15.04L313.28-15.04L313.28-15.04Q313.02-13.38 313.02-11.97L313.02-11.97L313.02-11.97Q313.02-9.02 314.34-7.90L314.34-7.90L314.34-7.90Q315.65-6.78 318.08-6.78L318.08-6.78L318.08-6.78Q320.51-6.78 323.10-7.90L323.10-7.90L323.10-7.90Q325.70-9.02 326.78-10.82ZM313.73-17.79L313.73-17.79L313.73-17.79Q318.27-17.79 320.90-20.61L320.90-20.61L320.90-20.61Q323.52-23.30 323.52-27.58L323.52-27.58L323.52-27.58Q323.52-29.06 322.98-29.86L322.98-29.86L322.98-29.86Q322.43-30.66 321.34-30.66L321.34-30.66L321.34-30.66Q320.26-30.66 319.33-30.24L319.33-30.24L319.33-30.24Q318.40-29.82 317.44-28.42L317.44-28.42L317.44-28.42Q315.07-25.22 313.73-17.79ZM382.66-10.69L382.66-10.69Q378.43-4.86 374.37-1.79L374.37-1.79L374.37-1.79Q370.30 1.28 366.11 1.28L366.11 1.28L366.11 1.28Q361.92 1.28 360.45 0.45L360.45 0.45L360.45-13.63L360.45-13.63Q356.80-3.90 350.27-0.13L350.27-0.13L350.27-0.13Q347.90 1.28 345.66 1.28L345.66 1.28L345.66 1.28Q341.38 1.28 339.52 0.45L339.52 0.45L339.52 0.45Q339.07-14.21 338.69-18.27L338.69-18.27L338.69-18.27Q338.30-22.34 337.98-24.83L337.98-24.83L337.98-24.83Q337.34-29.82 335.17-31.87L335.17-31.87L335.17-31.87Q337.92-33.92 341.76-33.92L341.76-33.92L341.76-33.92Q349.18-33.92 350.21-24.70L350.21-24.70L350.21-24.70Q350.46-22.53 350.46-20.22L350.46-20.22L350.46-20.22Q350.46-16.77 349.70-4.74L349.70-4.74L349.70-4.74Q351.23-5.44 352.86-7.97L352.86-7.97L352.86-7.97Q354.50-10.50 355.84-13.95L355.84-13.95L355.84-13.95Q358.85-21.95 358.85-28.86L358.85-28.86L358.85-28.86Q358.85-29.95 358.56-31.10L358.56-31.10L358.56-31.10Q358.27-32.26 357.95-32.58L357.95-32.58L357.95-32.58Q360.19-33.92 363.62-33.92L363.62-33.92L363.62-33.92Q367.04-33.92 368.67-31.58L368.67-31.58L368.67-31.58Q370.30-29.25 370.75-24.96L370.75-24.96L370.75-24.96Q371.26-19.52 371.26-16.26L371.26-16.26L371.26-16.26Q371.26-11.71 370.82-4.99L370.82-4.99L370.82-4.99Q374.02-7.30 376.64-14.85L376.64-14.85L376.64-14.85Q379.26-22.40 379.26-27.78L379.26-27.78L379.26-27.78Q379.26-30.14 378.88-31.55L378.88-31.55L378.88-31.55Q380.99-33.92 384.64-33.92L384.64-33.92L384.64-33.92Q386.88-33.92 388.51-32.70L388.51-32.70L388.51-32.70Q390.14-31.49 390.14-29.22L390.14-29.22L390.14-29.22Q390.14-26.94 389.47-24.51L389.47-24.51L389.47-24.51Q388.80-22.08 387.71-19.58L387.71-19.58L387.71-19.58Q385.60-14.59 382.66-10.69L382.66-10.69ZM411.01-22.46L411.01-22.46L411.01-22.46Q411.90-24.83 411.90-26.88L411.90-26.88L411.90-26.88Q411.90-30.66 408.83-30.66L408.83-30.66L408.83-30.66Q407.23-30.66 405.92-29.22L405.92-29.22L405.92-29.22Q404.61-27.78 404.61-25.98L404.61-25.98L404.61-25.98Q404.61-24.70 405.63-23.68L405.63-23.68L405.63-23.68Q407.10-22.27 410.88-19.97L410.88-19.97L410.88-19.97Q414.66-17.66 416.10-15.78L416.10-15.78L416.10-15.78Q417.54-13.89 417.54-11.30L417.54-11.30L417.54-11.30Q417.54-8.70 416.29-6.34L416.29-6.34L416.29-6.34Q415.04-3.97 412.80-2.30L412.80-2.30L412.80-2.30Q408 1.28 400.32 1.28L400.32 1.28L400.32 1.28Q396.16 1.28 392.96-0.90L392.96-0.90L392.96-0.90Q389.76-3.01 389.76-5.50L389.76-5.50L389.76-5.50Q389.76-8 391.58-9.47L391.58-9.47L391.58-9.47Q393.41-10.94 396.10-10.94L396.10-10.94L396.10-10.94Q398.78-10.94 400.45-9.92L400.45-9.92L400.45-9.92Q399.62-7.81 399.62-6.40L399.62-6.40L399.62-6.40Q399.62-2.18 403.20-2.18L403.20-2.18L403.20-2.18Q404.74-2.18 405.76-3.14L405.76-3.14L405.76-3.14Q406.78-4.10 406.78-5.76L406.78-5.76L406.78-5.76Q406.78-9.02 401.28-12.48L401.28-12.48L401.28-12.48Q396.80-15.42 395.78-16.58L395.78-16.58L395.78-16.58Q394.05-18.62 394.05-21.18L394.05-21.18L394.05-21.18Q394.05-23.74 395.26-26.18L395.26-26.18L395.26-26.18Q396.48-28.61 398.72-30.34L398.72-30.34L398.72-30.34Q403.39-33.92 411.52-33.92L411.52-33.92L411.52-33.92Q415.68-33.92 418.14-32.26L418.14-32.26L418.14-32.26Q420.61-30.59 420.61-27.78L420.61-27.78L420.61-27.78Q420.61-24.96 418.91-23.36L418.91-23.36L418.91-23.36Q417.22-21.76 414.14-21.76L414.14-21.76L414.14-21.76Q412.03-21.76 411.01-22.46ZM421.25-3.78L421.25-3.78L421.25-3.78Q421.25-6.21 423.07-7.52L423.07-7.52L423.07-7.52Q424.90-8.83 427.58-8.83L427.58-8.83L427.58-8.83Q430.27-8.83 431.97-7.52L431.97-7.52L431.97-7.52Q433.66-6.21 433.66-3.78L433.66-3.78L433.66-3.78Q433.66-1.34 431.78 0L431.78 0L431.78 0Q429.89 1.34 427.20 1.34L427.20 1.34L427.20 1.34Q424.51 1.34 422.88 0L422.88 0L422.88 0Q421.25-1.34 421.25-3.78ZM424.70-15.81L424.70-15.81L424.70-15.81Q424.70-16.26 424.83-16.90L424.83-16.90L429.82-42.62L429.82-42.62Q432.19-43.52 435.01-43.52L435.01-43.52L435.01-43.52Q437.82-43.52 439.30-41.73L439.30-41.73L439.30-41.73Q440.77-39.94 440.77-37.28L440.77-37.28L440.77-37.28Q440.77-34.62 439.74-31.65L439.74-31.65L439.74-31.65Q438.72-28.67 437.47-25.66L437.47-25.66L437.47-25.66Q436.22-22.66 435.17-19.55L435.17-19.55L435.17-19.55Q434.11-16.45 434.05-13.18L434.05-13.18L434.05-13.18Q432.58-11.52 430.02-11.52L430.02-11.52L430.02-11.52Q427.46-11.52 426.08-12.70L426.08-12.70L426.08-12.70Q424.70-13.89 424.70-15.81Z" fill="#444"></path></g></g><style>text {
  font-size: 64px;
  font-family: Arial Black;
  dominant-baseline: central;
  text-anchor: middle;
}</style></svg>