<svg width="676.9650634765625px" height="147.2025634765625px" xmlns="http://www.w3.org/2000/svg" viewBox="-88.48253173828124 1.3987182617187557 676.9650634765625 147.2025634765625" style="background: rgba(0, 0, 0, 0);" preserveAspectRatio="xMidYMid"><defs><filter id="editing-jagged" x="-100%" y="-100%" width="300%" height="300%"><feTurbulence result="turb" baseFrequency="0.04" numOctaves="1" seed="1"></feTurbulence><feDisplacementMap in="SourceGraphic" in2="turb" scale="4.5"></feDisplacementMap></filter></defs><g filter="url(#editing-jagged)"><g transform="translate(9.505007266998291, 103.875)"><path d="M19.70-22.49L12.85-43.32L12.85-43.32Q12.71-37.98 12.71-32.26L12.71-32.26L12.71-32.26Q12.71-24.46 12.96-15.45L12.96-15.45L12.96-15.45Q13.22-6.45 13.35-5.22L13.35-5.22L13.35-5.22Q13.48-3.99 13.70-3.08L13.70-3.08L13.70-3.08Q14.10-1.39 15.01 0L15.01 0L4.80 0L4.80 0Q6.19-1.98 6.46-4.25L6.46-4.25L6.46-4.25Q6.74-6.52 6.88-8.64L6.88-8.64L6.88-8.64Q7.18-12.96 7.18-20.25L7.18-20.25L7.18-20.25Q7.18-29.08 6.88-36.36L6.88-36.36L6.48-46.44L6.48-46.44Q6.26-52.00 4.69-54.35L4.69-54.35L4.69-54.35Q4.10-55.22 3.19-56.03L3.19-56.03L17.50-56.03L17.50-56.03Q18.93-49.77 21.06-42.74L21.06-42.74L27.72-21.46L37.94-56.03L52.22-56.03L52.22-56.03Q50.43-54.46 49.88-52.81L49.88-52.81L49.88-52.81Q49.07-50.28 48.96-46.95L48.96-46.95L48.71-40.47L48.71-40.47Q48.23-29.08 48.23-20.25L48.23-20.25L48.23-20.25Q48.23-5.46 49.58-1.46L49.58-1.46L49.58-1.46Q49.84-0.73 50.24 0L50.24 0L38.71 0L38.71 0Q39.70-1.94 39.83-4.19L39.83-4.19L39.83-4.19Q39.95-6.45 40.06-10.40L40.06-10.40L40.06-10.40Q40.50-23.40 40.50-29.33L40.50-29.33L40.50-29.33Q40.50-39.11 40.32-43.87L40.32-43.87L26.84 0L19.70-22.49ZM85.80-19.56L85.80-19.56L85.69-12.52L85.69-12.52Q85.69-5.97 86.90-3.59L86.90-3.59L86.90-3.59Q87.63-2.16 88.62-1.39L88.62-1.39L90.34 0L79.72 0L78.59-4.25L78.59-4.25Q74.45 0.73 66.80 0.73L66.80 0.73L66.80 0.73Q62.44 0.73 59.77-2.20L59.77-2.20L59.77-2.20Q57.42-4.83 57.42-8.42L57.42-8.42L57.42-8.42Q57.42-12.01 59.12-14.69L59.12-14.69L59.12-14.69Q60.83-17.36 63.61-19.12L63.61-19.12L63.61-19.12Q69.10-22.52 77.42-22.67L77.42-22.67L77.42-23.07L77.42-23.07Q77.42-31.97 74.67-33.51L74.67-33.51L74.67-33.51Q73.68-34.06 72.13-34.06L72.13-34.06L72.13-34.06Q70.57-34.06 69.03-33.03L69.03-33.03L69.03-33.03Q67.49-32.01 66.25-30.40L66.25-30.40L66.25-30.40Q63.76-27.14 62.70-22.71L62.70-22.71L62.70-22.71Q59.44-24.65 59.44-30.14L59.44-30.14L59.44-30.14Q59.44-32.37 60.02-35.16L60.02-35.16L60.02-35.16Q61.41-35.16 62.66-35.56L62.66-35.56L65.48-36.44L65.48-36.44Q69.62-37.72 73.57-37.72L73.57-37.72L73.57-37.72Q77.53-37.72 79.89-36.55L79.89-36.55L79.89-36.55Q82.25-35.38 83.57-33.07L83.57-33.07L83.57-33.07Q85.80-29.15 85.80-19.56ZM65.33-7.69L65.33-7.69Q65.33-5.42 66.38-4.17L66.38-4.17L66.38-4.17Q67.42-2.93 68.99-2.93L68.99-2.93L68.99-2.93Q70.57-2.93 72.03-3.75L72.03-3.75L72.03-3.75Q73.50-4.58 74.67-6.01L74.67-6.01L74.67-6.01Q77.42-9.27 77.42-13.66L77.42-13.66L77.42-19.08L77.42-19.08Q72.29-18.60 68.96-15.67L68.96-15.67L68.96-15.67Q65.33-12.52 65.33-7.69L65.33-7.69ZM119.64-39.18L119.64-39.18L119.64-39.18Q120.56-36.99 120.56-34.37L120.56-34.37L120.56-34.37Q120.56-31.75 120.37-30.03L120.37-30.03L120.37-30.03Q120.19-28.31 119.82-26.70L119.82-26.70L119.82-26.70Q119.06-23.29 117.44-21.24L117.44-21.24L117.44-21.24Q115.83-31.20 112.21-33.33L112.21-33.33L112.21-33.33Q110.93-34.06 109.44-34.06L109.44-34.06L109.44-34.06Q107.96-34.06 106.86-33.36L106.86-33.36L106.86-33.36Q105.76-32.67 104.99-31.35L104.99-31.35L104.99-31.35Q103.42-28.71 103.42-24.52L103.42-24.52L103.42-24.52Q103.42-20.32 104.26-17.30L104.26-17.30L104.26-17.30Q105.10-14.28 106.48-11.88L106.48-11.88L106.48-11.88Q107.85-9.48 109.59-7.75L109.59-7.75L109.59-7.75Q111.33-6.01 113.09-4.83L113.09-4.83L113.09-4.83Q116.64-2.56 119.38-2.56L119.38-2.56L119.38-2.56Q119.24-1.61 118.43-0.70L118.43-0.70L118.43-0.70Q117.63 0.22 116.67 0.73L116.67 0.73L116.67 0.73Q112.79 0.73 107.78-1.90L107.78-1.90L107.78-1.90Q98.44-6.85 95.18-16.33L95.18-16.33L95.18-16.33Q93.97-19.81 93.97-23.46L93.97-23.46L93.97-23.46Q93.97-27.10 94.81-29.61L94.81-29.61L94.81-29.61Q95.65-32.12 97.27-33.91L97.27-33.91L97.27-33.91Q100.56-37.72 106.42-37.72L106.42-37.72L106.42-37.72Q108.40-37.72 110.27-37.46L110.27-37.46L110.27-37.46Q113.78-36.99 115.19-36.99L115.19-36.99L115.19-36.99Q116.60-36.99 117.70-37.37L117.70-37.37L117.70-37.37Q118.80-37.76 119.64-39.18ZM139.42 0L128.61 0L128.61 0Q130.30-5.79 130.30-19.89L130.30-19.89L130.30-19.89Q130.30-29.92 128.69-33.58L128.69-33.58L128.69-33.58Q128.03-35.08 126.34-36.99L126.34-36.99L139.34-36.99L139.34-36.99Q138.68-34.68 138.28-30.65L138.28-30.65L138.28-30.65Q141.72-34.97 147.88-36.77L147.88-36.77L147.88-36.77Q150.51-37.54 151.72-39.18L151.72-39.18L151.72-39.18Q152.93-36.29 152.93-34.20L152.93-34.20L152.93-34.20Q152.93-32.12 152.71-30.34L152.71-30.34L152.71-30.34Q152.49-28.56 152.05-26.88L152.05-26.88L152.05-26.88Q151.10-23.25 149.52-21.24L149.52-21.24L149.52-21.24Q148.17-28.38 145.31-29.59L145.31-29.59L145.31-29.59Q142.02-31.02 138.87-25.71L138.87-25.71L138.87-25.71Q138.21-24.61 137.77-23.36L137.77-23.36L137.77-23.36Q137.73-22.52 137.73-21.64L137.73-21.64L137.73-21.64Q137.73-20.76 137.73-19.89L137.73-19.89L137.73-19.89Q137.73-5.79 139.42 0L139.42 0ZM174.02-34.06L174.02-34.06Q170.73-34.06 169.28-30.76L169.28-30.76L169.28-30.76Q167.83-27.47 167.83-19.67L167.83-19.67L167.83-19.67Q167.83-2.93 174.02-2.93L174.02-2.93L174.02-2.93Q177.32-2.93 178.77-7.40L178.77-7.40L178.77-7.40Q180.21-11.87 180.21-19.67L180.21-19.67L180.21-19.67Q180.21-27.47 178.77-30.76L178.77-30.76L178.77-30.76Q177.32-34.06 174.02-34.06L174.02-34.06ZM158.61-21.06L158.61-21.06Q158.61-37.72 174.02-37.72L174.02-37.72L174.02-37.72Q189.44-37.72 189.44-21.06L189.44-21.06L189.44-21.06Q189.44-10.95 185.19-5.05L185.19-5.05L185.19-5.05Q181.05 0.73 174.02 0.73L174.02 0.73L174.02 0.73Q166.99 0.73 162.85-5.05L162.85-5.05L162.85-5.05Q158.61-10.95 158.61-21.06L158.61-21.06ZM209.14 0L198.63 0L198.63 0Q200.32-5.79 200.32-19.89L200.32-19.89L200.32-19.89Q200.32-29.92 198.56-33.58L198.56-33.58L198.56-33.58Q198.12-34.50 197.57-35.30L197.57-35.30L196.36-36.99L209.07-36.99L209.07-36.99Q208.52-35.16 208.34-33.54L208.34-33.54L208.04-30.91L208.04-30.91Q212.48-37.72 219.32-37.72L219.32-37.72L219.32-37.72Q223.75-37.72 226.25-34.28L226.25-34.28L226.25-34.28Q228.66-30.91 228.66-25.16L228.66-25.16L228.66-21.24L228.66-21.24Q228.66-11.17 228.85-8.94L228.85-8.94L228.85-8.94Q229.03-6.70 229.14-5.53L229.14-5.53L229.14-5.53Q229.25-4.36 229.39-3.44L229.39-3.44L229.39-3.44Q229.65-1.72 230.16 0L230.16 0L219.43 0L219.43 0Q221.12-5.79 221.12-19.89L221.12-19.89L221.12-19.89Q221.12-25.52 220.40-27.61L220.40-27.61L220.40-27.61Q219.69-29.70 218.70-30.60L218.70-30.60L218.70-30.60Q217.71-31.49 216.10-31.49L216.10-31.49L216.10-31.49Q213.13-31.49 210.72-29.15L210.72-29.15L210.72-29.15Q208.63-27.14 207.53-24.02L207.53-24.02L207.53-24.02Q207.46-23.03 207.46-21.97L207.46-21.97L207.46-19.89L207.46-19.89Q207.46-5.79 209.14 0L209.14 0ZM248.47-34.42L243.49-34.42L243.49-34.42Q243.49-39.62 242.80-44.73L242.80-44.73L242.80-44.73Q242.10-49.84 241.88-50.85L241.88-50.85L241.88-50.85Q241.66-51.86 241.48-52.61L241.48-52.61L241.48-52.61Q241.30-53.36 241.17-53.94L241.17-53.94L241.17-53.94Q241.04-54.53 240.89-55.00L240.89-55.00L240.56-56.03L251.40-56.03L251.07-55.00L251.07-55.00Q250.93-54.53 250.80-53.94L250.80-53.94L250.80-53.94Q250.67-53.36 250.49-52.61L250.49-52.61L250.49-52.61Q250.31-51.86 250.09-50.85L250.09-50.85L250.09-50.85Q249.87-49.84 249.59-47.83L249.59-47.83L249.59-47.83Q249.32-45.81 249.06-43.43L249.06-43.43L249.06-43.43Q248.47-38.05 248.47-34.42L248.47-34.42ZM283.70-39.15L283.70-39.15L283.70-39.15Q284.69-36.95 284.69-34.72L284.69-34.72L284.69-34.72Q284.69-32.48 284.49-31.02L284.49-31.02L284.49-31.02Q284.29-29.55 283.89-28.20L283.89-28.20L283.89-28.20Q282.97-25.12 281.29-23.47L281.29-23.47L281.29-23.47Q280.15-29.15 278.81-30.83L278.81-30.83L278.81-30.83Q277.48-32.52 276.14-33.11L276.14-33.11L276.14-33.11Q274.80-33.69 273.30-33.69L273.30-33.69L273.30-33.69Q271.80-33.69 270.85-33.40L270.85-33.40L270.85-33.40Q269.90-33.11 269.20-32.56L269.20-32.56L269.20-32.56Q267.63-31.35 267.63-29.81L267.63-29.81L267.63-29.81Q267.63-28.27 268.40-27.15L268.40-27.15L268.40-27.15Q269.17-26.04 270.43-25.07L270.43-25.07L270.43-25.07Q271.69-24.10 273.30-23.18L273.30-23.18L276.60-21.31L276.60-21.31Q280.85-18.93 282.42-17.36L282.42-17.36L282.42-17.36Q285.53-14.25 285.53-10.80L285.53-10.80L285.53-10.80Q285.53-6.30 282.46-3.22L282.46-3.22L282.46-3.22Q278.58 0.73 270.81 0.73L270.81 0.73L270.81 0.73Q263.75 0.73 260.19-2.56L260.19-2.56L260.19-2.56Q259.17-3.52 258.73-4.47L258.73-4.47L258.73-4.47Q259.02-7.21 261.18-9.63L261.18-9.63L261.18-9.63Q263.27-11.98 265.25-12.34L265.25-12.34L265.25-12.34Q265.10-11.87 265.10-10.91L265.10-10.91L265.10-10.91Q265.10-9.96 265.65-8.55L265.65-8.55L265.65-8.55Q266.20-7.14 267.22-5.93L267.22-5.93L267.22-5.93Q269.53-3.15 272.42-3.15L272.42-3.15L272.42-3.15Q275.32-3.15 276.67-4.47L276.67-4.47L276.67-4.47Q278.03-5.79 278.03-7.47L278.03-7.47L278.03-7.47Q278.03-9.16 277.26-10.29L277.26-10.29L277.26-10.29Q276.49-11.43 275.23-12.41L275.23-12.41L275.23-12.41Q273.96-13.40 272.35-14.32L272.35-14.32L269.06-16.19L269.06-16.19Q264.84-18.68 263.27-20.43L263.27-20.43L263.27-20.43Q260.12-23.95 260.12-28.09L260.12-28.09L260.12-28.09Q260.12-32.45 263.78-35.16L263.78-35.16L263.78-35.16Q267.26-37.72 272.46-37.72L272.46-37.72L278.91-37.28L278.91-37.28Q281.25-37.28 282.17-37.85L282.17-37.85L282.17-37.85Q283.08-38.42 283.70-39.15ZM328.49-35.85L328.49-35.85L328.49-35.85Q332.15-37.72 335.83-37.72L335.83-37.72L335.83-37.72Q339.51-37.72 341.78-36.90L341.78-36.90L341.78-36.90Q344.06-36.07 345.67-34.50L345.67-34.50L345.67-34.50Q349.04-31.16 349.04-24.98L349.04-24.98L349.04-24.98Q349.04-12.74 342.63-6.01L342.63-6.01L342.63-6.01Q336.88 0 328.27 0L328.27 0L318.31 0L319.01-1.68L319.01-1.68Q320.10-4.36 320.29-7.20L320.29-7.20L320.29-7.20Q320.47-10.03 320.56-12.40L320.56-12.40L320.56-12.40Q320.65-14.76 320.73-17.50L320.73-17.50L320.73-17.50Q320.91-22.45 320.91-27.21L320.91-27.21L320.91-27.21Q320.91-31.97 320.87-34.42L320.87-34.42L320.87-34.42Q320.84-36.88 320.80-39.18L320.80-39.18L320.80-39.18Q320.58-47.90 320.09-49.79L320.09-49.79L320.09-49.79Q319.59-51.67 319.13-52.61L319.13-52.61L319.13-52.61Q318.68-53.54 318.09-54.35L318.09-54.35L316.85-56.03L330.21-56.03L330.21-56.03Q328.86-51.20 328.49-35.85ZM328.53-26.22L328.53-26.22L328.42-12.74L328.42-12.74Q328.42-5.68 328.78-2.82L328.78-2.82L328.78-2.82Q333.80-3.92 336.84-9.52L336.84-9.52L336.84-9.52Q339.88-15.05 339.88-23.14L339.88-23.14L339.88-23.14Q339.88-28.16 339.13-30.19L339.13-30.19L339.13-30.19Q338.38-32.23 337.34-33.14L337.34-33.14L337.34-33.14Q336.29-34.06 334.84-34.06L334.84-34.06L334.84-34.06Q333.40-34.06 332.30-33.54L332.30-33.54L332.30-33.54Q331.20-33.03 330.36-32.04L330.36-32.04L330.36-32.04Q328.53-29.88 328.53-26.22ZM368.44 0L357.64 0L357.64 0Q359.33-5.79 359.33-19.89L359.33-19.89L359.33-19.89Q359.33-29.92 357.71-33.58L357.71-33.58L357.71-33.58Q357.06-35.08 355.37-36.99L355.37-36.99L368.37-36.99L368.37-36.99Q367.71-34.68 367.31-30.65L367.31-30.65L367.31-30.65Q370.75-34.97 376.90-36.77L376.90-36.77L376.90-36.77Q379.54-37.54 380.75-39.18L380.75-39.18L380.75-39.18Q381.96-36.29 381.96-34.20L381.96-34.20L381.96-34.20Q381.96-32.12 381.74-30.34L381.74-30.34L381.74-30.34Q381.52-28.56 381.08-26.88L381.08-26.88L381.08-26.88Q380.13-23.25 378.55-21.24L378.55-21.24L378.55-21.24Q377.20-28.38 374.34-29.59L374.34-29.59L374.34-29.59Q371.04-31.02 367.90-25.71L367.90-25.71L367.90-25.71Q367.24-24.61 366.80-23.36L366.80-23.36L366.80-23.36Q366.76-22.52 366.76-21.64L366.76-21.64L366.76-21.64Q366.76-20.76 366.76-19.89L366.76-19.89L366.76-19.89Q366.76-5.79 368.44 0L368.44 0ZM414.11-19.56L414.11-19.56L414.00-12.52L414.00-12.52Q414.00-5.97 415.21-3.59L415.21-3.59L415.21-3.59Q415.94-2.16 416.93-1.39L416.93-1.39L418.65 0L408.03 0L406.90-4.25L406.90-4.25Q402.76 0.73 395.10 0.73L395.10 0.73L395.10 0.73Q390.75 0.73 388.07-2.20L388.07-2.20L388.07-2.20Q385.73-4.83 385.73-8.42L385.73-8.42L385.73-8.42Q385.73-12.01 387.43-14.69L387.43-14.69L387.43-14.69Q389.14-17.36 391.92-19.12L391.92-19.12L391.92-19.12Q397.41-22.52 405.73-22.67L405.73-22.67L405.73-23.07L405.73-23.07Q405.73-31.97 402.98-33.51L402.98-33.51L402.98-33.51Q401.99-34.06 400.43-34.06L400.43-34.06L400.43-34.06Q398.88-34.06 397.34-33.03L397.34-33.03L397.34-33.03Q395.80-32.01 394.56-30.40L394.56-30.40L394.56-30.40Q392.07-27.14 391.00-22.71L391.00-22.71L391.00-22.71Q387.74-24.65 387.74-30.14L387.74-30.14L387.74-30.14Q387.74-32.37 388.33-35.16L388.33-35.16L388.33-35.16Q389.72-35.16 390.97-35.56L390.97-35.56L393.79-36.44L393.79-36.44Q397.92-37.72 401.88-37.72L401.88-37.72L401.88-37.72Q405.83-37.72 408.20-36.55L408.20-36.55L408.20-36.55Q410.56-35.38 411.88-33.07L411.88-33.07L411.88-33.07Q414.11-29.15 414.11-19.56ZM393.64-7.69L393.64-7.69Q393.64-5.42 394.68-4.17L394.68-4.17L394.68-4.17Q395.73-2.93 397.30-2.93L397.30-2.93L397.30-2.93Q398.88-2.93 400.34-3.75L400.34-3.75L400.34-3.75Q401.81-4.58 402.98-6.01L402.98-6.01L402.98-6.01Q405.73-9.27 405.73-13.66L405.73-13.66L405.73-19.08L405.73-19.08Q400.60-18.60 397.27-15.67L397.27-15.67L397.27-15.67Q393.64-12.52 393.64-7.69L393.64-7.69ZM435.70-46.84L435.70-46.84L435.70-46.84Q434.95-45.63 433.89-44.81L433.89-44.81L433.89-44.81Q432.82-43.98 431.47-43.98L431.47-43.98L431.47-43.98Q430.11-43.98 429.05-44.81L429.05-44.81L429.05-44.81Q427.99-45.63 427.26-46.84L427.26-46.84L427.26-46.84Q425.76-49.33 425.76-52.11L425.76-52.11L425.76-52.11Q425.76-55.48 428.83-56.62L428.83-56.62L428.83-56.62Q429.93-57.02 431.51-57.02L431.51-57.02L431.51-57.02Q435.86-57.02 436.93-53.94L436.93-53.94L436.93-53.94Q437.26-53.06 437.26-51.98L437.26-51.98L437.26-51.98Q437.26-50.90 436.85-49.48L436.85-49.48L436.85-49.48Q436.45-48.05 435.70-46.84ZM436.56 0L425.76 0L425.76 0Q427.44-5.79 427.44-19.89L427.44-19.89L427.44-19.89Q427.44-29.81 425.68-33.54L425.68-33.54L425.68-33.54Q425.24-34.50 424.69-35.30L424.69-35.30L423.49-36.99L436.49-36.99L436.49-36.99Q434.88-30.94 434.88-18.37L434.88-18.37L434.88-18.37Q434.88-5.79 436.56 0L436.56 0ZM456.77 0L446.26 0L446.26 0Q447.95-5.79 447.95-19.89L447.95-19.89L447.95-19.89Q447.95-29.92 446.19-33.58L446.19-33.58L446.19-33.58Q445.75-34.50 445.20-35.30L445.20-35.30L443.99-36.99L456.70-36.99L456.70-36.99Q456.15-35.16 455.97-33.54L455.97-33.54L455.68-30.91L455.68-30.91Q460.11-37.72 466.96-37.72L466.96-37.72L466.96-37.72Q471.39-37.72 473.88-34.28L473.88-34.28L473.88-34.28Q476.29-30.91 476.29-25.16L476.29-25.16L476.29-21.24L476.29-21.24Q476.29-11.17 476.48-8.94L476.48-8.94L476.48-8.94Q476.66-6.70 476.77-5.53L476.77-5.53L476.77-5.53Q476.88-4.36 477.03-3.44L477.03-3.44L477.03-3.44Q477.28-1.72 477.80 0L477.80 0L467.07 0L467.07 0Q468.75-5.79 468.75-19.89L468.75-19.89L468.75-19.89Q468.75-25.52 468.04-27.61L468.04-27.61L468.04-27.61Q467.32-29.70 466.33-30.60L466.33-30.60L466.33-30.60Q465.34-31.49 463.73-31.49L463.73-31.49L463.73-31.49Q460.77-31.49 458.35-29.15L458.35-29.15L458.35-29.15Q456.26-27.14 455.16-24.02L455.16-24.02L455.16-24.02Q455.09-23.03 455.09-21.97L455.09-21.97L455.09-19.89L455.09-19.89Q455.09-5.79 456.77 0L456.77 0Z" fill="#444"></path></g></g><style>text {
  font-size: 64px;
  font-family: Arial Black;
  dominant-baseline: central;
  text-anchor: middle;
}</style></svg>